HIERARCHY
ROOT Hips
{
	OFFSET 0.000000 0.000000 0.000000
	CHANNELS 6 Xposition Yposition Zposition Xrotation Yrotation Zrotation
	JOINT LeftUpLeg_virtual
	{
		OFFSET 0.000000 0.000000 0.000000
		CHANNELS 3 Xrotation Yrotation Zrotation
		JOINT LeftUpLeg
		{
			OFFSET 15.427100 -6.655098 0.678600
			CHANNELS 3 Xrotation Yrotation Zrotation
			JOINT LeftLeg
			{
				OFFSET 4.081073 -39.591068 13.024000
				CHANNELS 3 Xrotation Yrotation Zrotation
				JOINT LeftFoot
				{
					OFFSET -4.081074 -37.707932 -15.979700
					CHANNELS 3 Xrotation Yrotation Zrotation
					JOINT LeftToeBase
					{
						OFFSET 5.346399 -15.068900 20.645000
						CHANNELS 3 Xrotation Yrotation Zrotation
						JOINT LeftToe_End
						{
							OFFSET 2.754700 0.931300 11.300900
							CHANNELS 3 Xrotation Yrotation Zrotation
							End Site
							{
								OFFSET 0 0 0
							}
						}
					}
				}
			}
		}
	}
	JOINT RightUpLeg_virtual
	{
		OFFSET 0.000000 0.000000 0.000000
		CHANNELS 3 Xrotation Yrotation Zrotation
		JOINT RightUpLeg
		{
			OFFSET -15.569500 -6.655098 0.678600
			CHANNELS 3 Xrotation Yrotation Zrotation
			JOINT RightLeg
			{
				OFFSET -4.081825 -39.591045 13.023800
				CHANNELS 3 Xrotation Yrotation Zrotation
				JOINT RightFoot
				{
					OFFSET 4.081824 -37.707954 -15.979600
					CHANNELS 3 Xrotation Yrotation Zrotation
					JOINT RightToeBase
					{
						OFFSET -5.346400 -15.068900 20.645000
						CHANNELS 3 Xrotation Yrotation Zrotation
						JOINT RightToe_End
						{
							OFFSET -2.754700 0.931300 11.300900
							CHANNELS 3 Xrotation Yrotation Zrotation
							End Site
							{
								OFFSET 0 0 0
							}
						}
					}
				}
			}
		}
	}
	JOINT Spine_virtual
	{
		OFFSET 0.000000 0.000000 0.000000
		CHANNELS 3 Xrotation Yrotation Zrotation
		JOINT Spine
		{
			OFFSET -0.279200 12.230698 -2.892100
			CHANNELS 3 Xrotation Yrotation Zrotation
			JOINT Spine1
			{
				OFFSET -0.232667 10.192268 -1.242267
				CHANNELS 3 Xrotation Yrotation Zrotation
				JOINT Spine1_split
				{
					OFFSET -0.232667 10.192268 -1.242267
					CHANNELS 3 Xrotation Yrotation Zrotation
					JOINT Spine2
					{
						OFFSET -0.232667 10.192268 -1.242267
						CHANNELS 3 Xrotation Yrotation Zrotation
						JOINT Neck_virtual
						{
							OFFSET 0.000000 0.000000 0.000000
							CHANNELS 3 Xrotation Yrotation Zrotation
							JOINT Neck
							{
								OFFSET -0.418800 17.814194 8.416900
								CHANNELS 3 Xrotation Yrotation Zrotation
								JOINT Head
								{
									OFFSET 0.000000 7.031097 3.806800
									CHANNELS 3 Xrotation Yrotation Zrotation
									JOINT HeadTop_End
									{
										OFFSET 0.000000 24.646606 12.978600
										CHANNELS 3 Xrotation Yrotation Zrotation
										End Site
										{
											OFFSET 0 0 0
										}
									}
								}
							}
						}
						JOINT LeftShoulder_virtual
						{
							OFFSET 0.000000 0.000000 0.000000
							CHANNELS 3 Xrotation Yrotation Zrotation
							JOINT LeftShoulder
							{
								OFFSET 8.476499 7.247704 -3.868750
								CHANNELS 3 Xrotation Yrotation Zrotation
								JOINT LeftShoulder_split
								{
									OFFSET 8.476499 7.247704 -3.868750
									CHANNELS 3 Xrotation Yrotation Zrotation
									JOINT LeftArm
									{
										OFFSET 9.308998 -2.777710 0.208600
										CHANNELS 3 Xrotation Yrotation Zrotation
										JOINT LeftForeArm
										{
											OFFSET 29.972298 0.000000 0.000000
											CHANNELS 3 Xrotation Yrotation Zrotation
											JOINT LeftHand
											{
												OFFSET 26.026505 0.000000 0.000000
												CHANNELS 3 Xrotation Yrotation Zrotation
												End Site
												{
													OFFSET 0 0 0
												}
											}
										}
									}
								}
							}
						}
						JOINT RightShoulder_virtual
						{
							OFFSET 0.000000 0.000000 0.000000
							CHANNELS 3 Xrotation Yrotation Zrotation
							JOINT RightShoulder
							{
								OFFSET -7.570500 7.247704 -3.868750
								CHANNELS 3 Xrotation Yrotation Zrotation
								JOINT RightShoulder_split
								{
									OFFSET -7.570500 7.247704 -3.868750
									CHANNELS 3 Xrotation Yrotation Zrotation
									JOINT RightArm
									{
										OFFSET -9.308998 -2.777710 0.208500
										CHANNELS 3 Xrotation Yrotation Zrotation
										JOINT RightForeArm
										{
											OFFSET -29.972300 0.000000 0.000000
											CHANNELS 3 Xrotation Yrotation Zrotation
											JOINT RightHand
											{
												OFFSET -26.026505 0.000000 0.000000
												CHANNELS 3 Xrotation Yrotation Zrotation
												End Site
												{
													OFFSET 0 0 0
												}
											}
										}
									}
								}
							}
						}
					}
				}
			}
		}
	}
}
MOTION
Frames: 4
Frame Time: 0.03333333
55.515518 90.128021 159.151428 0.000000 0.000000 0.000000 -8.886900 38.727931 10.354819 -18.640194 3.507160 -16.284879 28.754611 8.265897 2.078029 17.419001 -5.932613 18.643648 -28.149385 2.715437 1.748659 0.000000 0.000000 0.000000 -7.462558 39.038554 9.503389 -20.357464 12.652511 -5.326852 41.718256 4.521498 8.459264 15.721668 -18.336466 4.622799 -37.949890 8.787437 1.722754 0.000000 0.000000 0.000000 -9.514897 40.804684 9.875729 7.059946 -6.132398 -2.043031 -1.903259 -1.445190 1.031543 0.025350 -0.000473 0.036902 0.000000 0.000000 0.000000 -0.284669 0.590504 2.165846 -9.830164 6.906560 5.434208 -8.764882 -9.523307 -24.414713 0.000000 0.000000 0.000000 -3.008935 -0.351692 1.289202 1.757479 0.375356 -5.965694 1.675670 -0.529712 -3.163384 11.069297 6.032116 -62.875907 19.889248 -37.279849 7.151750 0.000000 0.000000 0.000000 -1.441329 -0.763905 1.968359 1.118444 3.019110 -1.578845 -17.574367 -3.417401 1.152445 11.658310 1.950424 65.860666 -1.890720 18.959905 14.576283 0.000000 0.000000 0.000000 
57.164799 91.315918 161.788025 0.000000 0.000000 0.000000 -9.235130 42.314412 10.401715 -14.755468 1.184406 -17.359295 27.488387 8.464087 3.012905 14.073040 -4.700268 19.133564 -27.270406 2.789764 1.021361 0.000000 0.000000 0.000000 -7.535659 41.736161 9.275195 -25.602909 13.409890 -5.665003 38.703188 3.179371 8.117711 16.975715 -18.402184 2.160764 -29.704626 8.838846 1.313028 0.000000 0.000000 0.000000 -10.119285 43.626734 10.237049 7.970765 -7.004350 -1.690935 -2.334241 -1.732287 1.248678 0.078697 -0.033002 0.000636 0.000000 0.000000 0.000000 -0.251433 0.288951 2.400016 -10.049699 6.697544 5.555423 -10.081969 -9.048938 -24.401122 0.000000 0.000000 0.000000 -3.173977 -0.698452 1.409883 1.802605 -0.629634 -5.925407 1.190467 0.885863 -3.064900 9.950305 2.877075 -61.548419 19.892269 -36.972907 7.639446 0.000000 0.000000 0.000000 -1.683685 -1.056822 2.261270 0.987551 2.217066 -0.425353 -18.132366 -3.471963 0.176699 12.406707 0.667464 66.509548 -1.144746 18.691509 13.897642 0.000000 0.000000 0.000000 
58.879108 92.515739 164.258560 0.000000 0.000000 0.000000 -9.294909 45.862285 10.492000 -10.895626 -0.176978 -17.766521 25.291268 7.971708 3.529496 10.714770 -4.712347 19.906692 -26.006741 2.741248 0.557928 0.000000 0.000000 0.000000 -7.568010 44.902155 9.191485 -29.165099 12.784223 -6.379047 33.741053 2.243834 7.154402 19.102724 -17.359221 1.481642 -22.390834 9.253228 -0.460243 0.000000 0.000000 0.000000 -10.889654 46.719928 10.853051 8.523616 -7.772068 -1.756751 -2.631076 -1.987531 1.481690 0.134394 -0.092886 -0.026752 0.000000 0.000000 0.000000 -0.243744 0.052263 2.609018 -10.038528 6.410504 5.854318 -10.895313 -8.842388 -24.311577 0.000000 0.000000 0.000000 -3.256596 -0.993502 1.544453 1.833807 -1.582244 -5.920819 0.723449 1.969268 -2.741062 8.492983 -0.176593 -60.216560 19.894123 -36.691397 7.999059 0.000000 0.000000 0.000000 -1.814361 -1.285992 2.542974 0.906996 1.371473 1.175100 -18.711699 -3.475467 -0.634298 13.032681 -0.762501 66.724541 -0.637960 18.696403 13.564128 0.000000 0.000000 0.000000 
60.670334 93.605057 166.561172 0.000000 0.000000 0.000000 -9.166034 49.259061 10.645500 -7.558769 -1.058854 -17.286070 22.895964 6.196571 3.508842 9.325400 -6.249225 19.751695 -26.804688 2.491491 0.618747 0.000000 0.000000 0.000000 -7.768425 48.721703 9.406053 -31.183635 10.890304 -7.383434 27.697838 1.753286 5.893640 21.822985 -15.425287 2.442760 -16.515809 9.821021 -3.516759 0.000000 0.000000 0.000000 -11.528838 50.041309 11.527131 8.742488 -8.454697 -2.242927 -2.754706 -2.219577 1.752748 0.156507 -0.146821 -0.026143 0.000000 0.000000 0.000000 -0.227517 -0.113286 2.811826 -9.809352 6.096185 6.333381 -11.258150 -8.696510 -24.051832 0.000000 0.000000 0.000000 -3.276888 -1.226625 1.732256 1.822176 -2.421060 -5.830623 0.347783 2.607786 -2.355807 6.720329 -2.705892 -59.105308 20.041448 -37.038115 8.361058 0.000000 0.000000 0.000000 -1.872559 -1.470603 2.836953 0.915133 0.412140 3.025915 -19.206287 -3.404233 -1.164912 13.596382 -2.278486 66.316916 -0.457115 18.940900 13.627695 0.000000 0.000000 0.000000 
